<?xml version="1.0" standalone="no"?>
<!DOCTYPE svg PUBLIC "-//W3C//DTD SVG 20010904//EN"
 "http://www.w3.org/TR/2001/REC-SVG-20010904/DTD/svg10.dtd">
<svg version="1.0" xmlns="http://www.w3.org/2000/svg"
 width="500.000000pt" height="500.000000pt" viewBox="0 0 500.000000 500.000000"
 preserveAspectRatio="xMidYMid meet">

<g transform="translate(0.000000,500.000000) scale(0.100000,-0.100000)"
fill="#000000" stroke="none">
<path d="M2920 3008 c0 -2 7 -25 15 -52 8 -27 15 -62 15 -79 0 -24 3 -28 18
-22 9 4 26 8 36 10 24 2 34 27 35 82 1 41 1 41 -41 48 -24 3 -51 9 -60 11 -10
3 -18 4 -18 2z"/>
<path d="M2141 2904 c9 -45 55 -144 84 -179 16 -20 16 -20 11 5 -26 106 -37
175 -32 196 6 22 4 24 -32 22 l-39 -1 8 -43z"/>
<path d="M2655 2880 l-40 -20 34 6 c58 10 122 6 147 -11 30 -20 40 -19 23 2
-17 20 -71 43 -101 43 -13 0 -41 -9 -63 -20z"/>
<path d="M2308 2855 c-15 -8 -32 -24 -37 -34 -9 -15 -4 -15 37 6 35 19 58 23
90 20 29 -3 40 -1 34 5 -18 18 -95 19 -124 3z"/>
<path d="M2968 2823 c-27 -33 -32 -49 -5 -20 43 45 83 28 57 -25 -11 -22 -11
-22 5 -3 9 11 14 29 13 40 -4 27 -49 32 -70 8z"/>
<path d="M2354 2796 c-18 -8 -35 -19 -38 -25 -4 -6 -12 -8 -18 -5 -7 5 -8 2
-3 -6 6 -10 4 -12 -10 -6 -15 5 -16 4 -5 -9 10 -13 16 -11 42 15 38 38 52 38
31 1 -16 -27 -16 -30 0 -55 32 -49 117 -24 117 34 0 48 -63 78 -116 56z"/>
<path d="M2658 2788 c-13 -13 -16 -17 -6 -9 17 13 18 12 12 -16 -9 -47 10 -73
54 -73 46 0 54 6 87 53 14 21 20 35 13 31 -7 -5 -9 -2 -5 8 4 12 1 14 -13 11
-10 -3 -21 0 -24 6 -4 6 -27 11 -51 11 -32 0 -50 -6 -67 -22z"/>
<path d="M2963 2765 c-3 -9 -3 -19 1 -22 3 -4 6 -1 6 5 0 7 7 12 16 12 8 0 12
5 9 10 -9 15 -25 12 -32 -5z"/>
<path d="M2991 2713 c-13 -13 -34 -23 -47 -23 -16 0 -25 -9 -33 -30 -5 -17
-26 -55 -46 -85 -20 -30 -34 -59 -30 -65 15 -24 69 -42 113 -37 34 4 53 14 83
43 69 67 75 136 16 191 l-32 29 -24 -23z"/>
<path d="M2530 2675 c-14 -17 -7 -45 12 -45 9 0 9 3 0 12 -7 7 -8 17 -1 30 12
22 6 24 -11 3z"/>
<path d="M2600 2580 c-19 -11 -48 -19 -65 -20 -26 -1 -27 -2 -12 -11 25 -15
70 -2 97 27 28 29 26 29 -20 4z"/>
<path d="M2480 2403 c0 -21 47 -26 118 -12 72 14 67 16 -45 21 -54 3 -73 0
-73 -9z"/>
</g>
</svg>
